<svg width="64" height="64" viewBox="0 0 64 64" fill="none" xmlns="http://www.w3.org/2000/svg">
  <rect width="64" height="64" rx="15" fill="#172033"/>
  <path
    d="M10 39C10.5 23.5 23.2 10 39.5 10C50.2 10 55 17.2 55 29.5"
    stroke="#F8B81F"
    stroke-width="3.8"
    stroke-linecap="round"
  />
  <circle cx="39.5" cy="18.3" r="5.4" stroke="#F8B81F" stroke-width="3.8"/>
  <path
    d="M35.2 25C29.2 28.8 26.6 34.8 23.5 43.5"
    stroke="#F8B81F"
    stroke-width="3.8"
    stroke-linecap="round"
    stroke-linejoin="round"
  />
  <path
    d="M30.7 34C35 38 40.5 40.1 47.4 40"
    stroke="#F8B81F"
    stroke-width="3.8"
    stroke-linecap="round"
    stroke-linejoin="round"
  />
  <path
    d="M7 47C17.2 46.5 25.7 41.4 36 42.4C45.4 43.3 51.4 48.2 58 40"
    stroke="#FFFFFF"
    stroke-width="4"
    stroke-linecap="round"
    stroke-linejoin="round"
  />
  <path
    d="M11.5 53C22 54.2 31.1 49.2 39.4 50.3C47.3 51.4 51.4 55.9 57.2 52"
    stroke="#F8B81F"
    stroke-width="3.6"
    stroke-linecap="round"
    stroke-linejoin="round"
  />
</svg>
